<svg xmlns="http://www.w3.org/2000/svg" xmlns:xlink="http://www.w3.org/1999/xlink" width="512" zoomAndPan="magnify" viewBox="0 0 384 383.999986" height="512" preserveAspectRatio="xMidYMid meet" version="1.0"><defs><g/><clipPath id="11e0b007c8"><rect x="0" width="235" y="0" height="191"/></clipPath></defs><rect x="-38.4" width="460.8" fill="#ffffff" y="-38.399999" height="460.799983" fill-opacity="1"/><rect x="-38.4" width="460.8" fill="#025d7e" y="-38.399999" height="460.799983" fill-opacity="1"/><g transform="matrix(1, 0, 0, 1, 78, 95)"><g clip-path="url(#11e0b007c8)"><g fill="#ffffff" fill-opacity="1"><g transform="translate(19.442192, 157.926041)"><g><path d="M 58.921875 -113.609375 C 55.992188 -116.703125 52.773438 -119.015625 49.265625 -120.546875 C 45.765625 -122.078125 41.832031 -122.5625 37.46875 -122 C 32.96875 -121.414062 29.316406 -119.4375 26.515625 -116.0625 C 23.710938 -112.695312 22.578125 -108.945312 23.109375 -104.8125 C 23.609375 -101.03125 25.59375 -98.007812 29.0625 -95.75 C 32.539062 -93.5 37.503906 -91.597656 43.953125 -90.046875 C 55.160156 -87.054688 63.238281 -83.835938 68.1875 -80.390625 C 73.132812 -76.953125 76.765625 -73.039062 79.078125 -68.65625 C 81.398438 -64.28125 82.921875 -59.316406 83.640625 -53.765625 C 85.398438 -40.179688 82.816406 -28.640625 75.890625 -19.140625 C 68.960938 -9.648438 58.882812 -4.046875 45.65625 -2.328125 C 36.4375 -1.128906 28.117188 -2.476562 20.703125 -6.375 C 13.285156 -10.28125 6.769531 -15.832031 1.15625 -23.03125 L 15.828125 -41.703125 C 18.578125 -36.296875 22.4375 -32.050781 27.40625 -28.96875 C 32.375 -25.882812 37.394531 -24.675781 42.46875 -25.34375 C 47.4375 -25.988281 51.304688 -28.320312 54.078125 -32.34375 C 56.859375 -36.375 57.878906 -41.222656 57.140625 -46.890625 C 56.492188 -51.859375 54.441406 -55.613281 50.984375 -58.15625 C 47.523438 -60.707031 42.632812 -62.773438 36.3125 -64.359375 C 22.300781 -67.703125 12.476562 -71.890625 6.84375 -76.921875 C 1.207031 -81.953125 -2.207031 -89.078125 -3.40625 -98.296875 C -4.332031 -105.378906 -3.539062 -112.207031 -1.03125 -118.78125 C 1.476562 -125.351562 5.503906 -130.863281 11.046875 -135.3125 C 16.585938 -139.757812 23.019531 -142.457031 30.34375 -143.40625 C 36.84375 -144.25 43.859375 -143.660156 51.390625 -141.640625 C 58.921875 -139.617188 64.71875 -136.828125 68.78125 -133.265625 Z M 58.921875 -113.609375 "/></g></g></g><g fill="#ffffff" fill-opacity="1"><g transform="translate(130.159749, 146.844981)"><g><path d="M 99.15625 -121.6875 L 95.859375 -99.046875 L 68.984375 -102.96875 L 52.859375 7.703125 L 26.875 3.921875 L 43 -106.75 L 16.125 -110.671875 L 19.421875 -133.3125 Z M 99.15625 -121.6875 "/></g></g></g></g></g></svg>